<?xml version="1.0" encoding="UTF-8" standalone="no"?>
<!-- Created with Inkscape (http://www.inkscape.org/) -->

<svg
   width="456"
   height="456"
   id="svg2"
   version="1.1"
   xmlns="http://www.w3.org/2000/svg"
   xmlns:svg="http://www.w3.org/2000/svg"
   xmlns:rdf="http://www.w3.org/1999/02/22-rdf-syntax-ns#"
   xmlns:cc="http://creativecommons.org/ns#"
   xmlns:dc="http://purl.org/dc/elements/1.1/">
  <defs
     id="defs4" />
  <metadata
     id="metadata7">
    <rdf:RDF>
      <cc:Work
         rdf:about="">
        <dc:format>image/svg+xml</dc:format>
        <dc:type
           rdf:resource="http://purl.org/dc/dcmitype/StillImage" />
      </cc:Work>
    </rdf:RDF>
  </metadata>
  <g
     id="layer2">
    <rect
       id="rect2985"
       x="0"
       width="456"
       height="456"
       y="0"
       style="fill:#2f4274;stroke:none;fill-opacity:1" />
  </g>
  <g
     id="layer1">
    <g
       id="Hat">
      <path
         style="fill:#ffffff;fill-opacity:1;stroke:none"
         d="m 83.400089,147.79995 c 0,0 -10.646447,-0.58576 -11,-12.5 -0.353553,-11.91424 11,-12.5 11,-12.5 H 150.40009 L 150.4,29.299998 h 158 l 9e-5,93.499952 h 75 c 0,0 7,-1.11435 7,12.5 0,13.61435 -7,12.5 -7,12.5 z"
         id="path3822" />
    </g>
    <g
       id="Head"
       transform="translate(5.8999997,-1.6000019)">
      <path
         style="fill:#ffffff;fill-opacity:1;stroke:none"
         id="Face"
         d="m 298.39904,131.09473 a 91.216774,19.445436 0 0 1 -45.77879,16.85086 91.216774,19.445436 0 0 1 -91.34479,-0.0578 91.216774,19.445436 0 0 1 -45.30862,-16.90852"
         transform="matrix(1.1730299,0,0,4.55229,-17.637007,-439.37359)" />
      <circle
         transform="translate(173.085,83.439)"
         style="fill:#2f4274;stroke:none;fill-opacity:1"
         r="13.5"
         cy="100"
         cx="100"
         id="LeftEye" />
      <circle
         id="RightEye"
         cx="100"
         cy="100"
         r="13.5"
         style="fill:#2f4274;stroke:none;fill-opacity:1"
         transform="translate(76.667,83.4386)" />
      <g
         id="Glasses"
         transform="translate(-1.1,-3.2)">
        <path
           style="fill:none;stroke:#2f4274;stroke-width:1.60000002;stroke-linecap:butt;stroke-linejoin:miter;stroke-miterlimit:4;stroke-dasharray:none;stroke-opacity:1"
           d="m 202.3,171.679 h -52 v 29.755 h 52 z"
           id="path3809" />
        <path
           style="fill:none;stroke:#2f4274;stroke-width:1.29999995;stroke-linecap:butt;stroke-linejoin:miter;stroke-miterlimit:4;stroke-dasharray:none;stroke-opacity:1"
           d="m 202.2,187 c 0,0 9.62528,-6.5 23.3,-6.5 13.67472,0 22.8,6.5 22.8,6.5"
           id="path3819" />
        <path
           id="path3811"
           d="m 300.9,171.679 h -52 v 29.755 h 52 z"
           style="fill:none;stroke:#2f4274;stroke-width:1.60000002;stroke-linecap:butt;stroke-linejoin:miter;stroke-miterlimit:4;stroke-dasharray:none;stroke-opacity:1" />
      </g>
    </g>
    <g
       id="Torso">
      <path
         style="fill:#ffffff;stroke:#ffffff;stroke-width:1px;stroke-linecap:butt;stroke-linejoin:miter;stroke-opacity:1"
         d="M 60,456 V 276 c 0.803326,-23.78935 8.656899,-22.14858 29,-22 h 59 L 228,413.8 308,254 h 59 c 16.91138,-0.8358 30.0533,2.4525 29,22 V 456 H 342 V 373.86735 C 342,373.86735 342.90458,360 327.5,360 312.09542,360 313,373.86735 313,373.86735 V 456 H 143 v -83.03968 c 0,0 -0.5145,-12.89506 -14.5,-12.96032 -13.9855,-0.0653 -14.5,15.68141 -14.5,15.68141 V 456 Z"
         id="path2994" />
    </g>
    <g
       id="Shirt">
      <path
         style="fill:#ffffff;stroke:#ffffff;stroke-width:1px;stroke-linecap:butt;stroke-linejoin:miter;stroke-opacity:1"
         d="M 153,254 228,400.3 303,254 Z"
         id="path3001" />
      <g
         id="BowTie"
         transform="translate(3.7,-0.6)">
        <path
           style="fill:#2f4274;fill-opacity:1;stroke:none"
           d="m 188.4,261.7 v 37 l 19,-8 v -17 z"
           id="path3771" />
        <circle
           id="circle3773"
           cx="225"
           cy="283"
           r="14"
           style="fill:#2f4274;stroke:none;fill-opacity:1"
           transform="translate(0,-1.5)" />
        <path
           style="fill:#2f4274;fill-opacity:1;stroke:none"
           d="m 242.6,273.7 v 17 l 20,8 v -37 z"
           id="path3775" />
      </g>
      <circle
         id="Button1"
         cx="228.7"
         cy="142"
         r="5"
         style="fill:#2f4274;stroke:none;fill-opacity:1"
         transform="translate(0,176.5)" />
      <circle
         transform="translate(0,201.3)"
         style="fill:#2f4274;stroke:none;fill-opacity:1"
         r="5"
         cy="142"
         cx="228.7"
         id="Button2" />
      <circle
         id="Button3"
         cx="228.7"
         cy="142"
         r="5"
         style="fill:#2f4274;stroke:none;fill-opacity:1"
         transform="translate(0,227.1)" />
    </g>
  </g>
</svg>
